<svg xmlns="http://www.w3.org/2000/svg" width="1000" height="1000" style="enable-background:new 0 0 1000 1000" xml:space="preserve"><path d="M500 470.6c-81.1 0-147.1-66-147.1-147.1s66-147.1 147.1-147.1 147 66 147 147.1-65.9 147.1-147 147.1zm0-235.3c-48.7 0-88.2 39.6-88.2 88.2s39.6 88.2 88.2 88.2 88.2-39.6 88.2-88.2-39.6-88.2-88.2-88.2zM735.3 764.7c-16.3 0-29.4-13.2-29.4-29.4v-58.8c0-23.6-9.2-45.8-25.8-62.4-16.7-16.7-38.8-25.8-62.4-25.8H382.4c-23.6 0-45.7 9.2-62.4 25.8-16.7 16.7-25.8 38.8-25.8 62.4v58.8c0 16.3-13.2 29.4-29.4 29.4s-29.4-13.2-29.4-29.4v-58.8c0-39.3 15.3-76.2 43.1-104 27.8-27.8 64.7-43.1 104-43.1h235.3c39.3 0 76.2 15.3 104 43.1 27.8 27.8 43.1 64.7 43.1 104v58.8c-.2 16.3-13.4 29.4-29.6 29.4z"/></svg>